<svg xmlns="http://www.w3.org/2000/svg" viewBox="0 0 64 64">
  <defs>
    <clipPath id="ugrc-logo-clip">
      <circle cx="32.49" cy="32.16" r="29.34" fill="none" stroke-width="0" />
    </clipPath>
  </defs>
  <g clip-path="url(#ugrc-logo-clip)">
    <path fill="#f7ea99" d="M58.59 36.88c-2.46 1.69-3.3 3.5-2.72 5.85.55 2.26 2.44 3.83 3.92 4.75.69.43 1.42.79 2.15 1.11V35.04c-1.17.52-2.3 1.11-3.35 1.84Z" />
    <path fill="#eaca00" d="M58.08 50.25c-2.87-1.77-4.73-4.1-5.37-6.74-.9-3.7.45-6.83 4.03-9.3a26.67 26.67 0 0 1 5.19-2.69v-4.21l-.79.25c-3.56 1.13-6.92 2.21-9.61 4.89l-.07.07a9.1 9.1 0 0 0-1.13 1.4c-1.57 2.4-2.18 5.75-1.66 9.18a15.5 15.5 0 0 0 1.93 5.45c3.07 5.11 8.85 6.99 11.32 7.58v-4.04a22.3 22.3 0 0 1-3.86-1.85Z" />
    <path fill="#bd9955" d="M47.83 50.24a18.69 18.69 0 0 1-2.36-6.65c-.64-4.22.15-8.39 2.16-11.45.45-.69.97-1.32 1.53-1.9l.09-.09c3.25-3.25 7.14-4.49 10.92-5.69l1.78-.58V13.6c-.67.17-1.34.36-1.99.58a30.98 30.98 0 0 0-8.67 4.9c-9.85 7.75-15.17 23.33-7.37 34.16 2.82 3.92 6.72 6.57 9.58 8.15h5.48c1.28 0 2.37-.82 2.78-1.96-2.59-.54-9.94-2.59-13.92-9.2Z" />
    <path fill="#386b7d" d="M37.04 5.5a30.61 30.61 0 0 1 1.35 6.93c.51 6.15-1.52 10.85-3.68 15.83-.56 1.29-1.14 2.63-1.67 3.99a38.2 38.2 0 0 0-1.36 4.17 32.17 32.17 0 0 0-.95 5.24 24.4 24.4 0 0 0 6.69 19.73H47.5a29.25 29.25 0 0 1-6.22-6.25c-8.89-12.35-3.04-29.94 7.99-38.62a34.18 34.18 0 0 1 9.64-5.42c1-.34 2.01-.62 3.04-.84V5.52a2.98 2.98 0 0 0-2.97-2.97H41.27A2.98 2.98 0 0 1 38.3-.42v-11.99a2.98 2.98 0 0 0-2.97-2.97H6.06c-.64 0-1.23.21-1.71.55 21.57 1.3 29.78 11.2 32.69 20.32Z" />
    <path fill="#2a515e" d="M27.28 41.34a36 36 0 0 1 1.05-5.8c.4-1.51.9-3.04 1.48-4.54.56-1.43 1.15-2.79 1.72-4.11 2.06-4.77 3.84-8.88 3.4-14.17a29.68 29.68 0 0 0-1.19-6.17C30.19-4.57 19.71-10.65 3.09-11.42V2.47a41.16 41.16 0 0 1 8.6-1.27c.96-.02 1.9.02 2.78.11.9.1 1.78.26 2.6.48 4.95 1.32 8.06 5.09 8.3 10.08.09 1.87-.12 3.61-.31 4.75-.46 2.73-1.22 5.48-1.94 8.13-1.32 4.81-2.68 9.78-2.33 14.78.62 8.79 4.29 16.34 8 21.87h4.12a27.94 27.94 0 0 1-5.64-20.06Z" />
    <path fill="#4d2a54" d="M17.34 39.77c-.4-5.58 1.05-10.85 2.45-15.94.74-2.69 1.44-5.23 1.87-7.79.16-.97.34-2.45.26-4-.17-3.51-2.21-5.96-5.74-6.9a14.5 14.5 0 0 0-2.08-.38c-.74-.08-1.53-.11-2.34-.1a41.1 41.1 0 0 0-8.67 1.37v7.53c4.27-.37 10.25.15 12.3 5.44.44 1.12.65 2.41.65 3.83 0 .85-.09 1.76-.25 2.71-.48 2.87-1.42 5.57-2.32 8.18-1.11 3.21-2.16 6.24-2.41 9.5a34.37 34.37 0 0 0 .07 5.96 36.67 36.67 0 0 0 3.51 12.21h9.99c-3.5-5.69-6.69-13.07-7.3-21.63Z" />
    <path fill="#331c38" d="M7.69 49.53a37.2 37.2 0 0 1-.08-6.58c.29-3.7 1.45-7.09 2.59-10.36.9-2.59 1.74-5.04 2.18-7.63.13-.77.2-1.49.2-2.15 0-.98-.14-1.85-.41-2.56-1.28-3.3-5.78-3.52-9.06-3.19v41.36a2.98 2.98 0 0 0 2.97 2.97h4.76A39.65 39.65 0 0 1 7.7 49.52Z" />
  </g>
  <path fill="gray" stroke="gray" stroke-miterlimit="10" d="M32.65 63.46a31.29 31.29 0 0 1-22.25-9.21A31.23 31.23 0 0 1 1.19 32 31.29 31.29 0 0 1 10.4 9.75 31.23 31.23 0 0 1 32.65.54 31.29 31.29 0 0 1 54.9 9.75 31.23 31.23 0 0 1 64.11 32a31.29 31.29 0 0 1-9.21 22.25 31.23 31.23 0 0 1-22.25 9.21Zm0-62.87a31.22 31.22 0 0 0-22.21 9.2A31.28 31.28 0 0 0 1.24 32a31.22 31.22 0 0 0 9.2 22.21 31.28 31.28 0 0 0 22.21 9.2 31.22 31.22 0 0 0 22.21-9.2A31.28 31.28 0 0 0 64.06 32a31.22 31.22 0 0 0-9.2-22.21A31.28 31.28 0 0 0 32.65.59Z" />
</svg>
